<?xml version="1.0" encoding="UTF-8" standalone="no"?>
<!DOCTYPE svg PUBLIC "-//W3C//DTD SVG 1.1//EN" "http://www.w3.org/Graphics/SVG/1.1/DTD/svg11.dtd">
<svg width="100%" height="100%" viewBox="0 0 245 46" version="1.1" xmlns="http://www.w3.org/2000/svg" xmlns:xlink="http://www.w3.org/1999/xlink" xml:space="preserve" xmlns:serif="http://www.serif.com/" style="fill-rule:evenodd;clip-rule:evenodd;stroke-linejoin:round;stroke-miterlimit:2;">
    <g transform="matrix(0.215565,0,0,0.215565,-145.279,-295.813)">
        <g transform="matrix(0.551614,0,0,0.551614,332.989,743.173)">
            <path d="M810.818,1476.66C809.941,1476.86 809.032,1476.96 808.098,1476.96C726.314,1476.96 660.014,1410.66 660.014,1328.87C660.014,1247.09 726.314,1180.79 808.098,1180.79L2470.17,1180.79C2558.83,1180.79 2630.71,1252.66 2630.71,1341.33L2630.71,1464.28C2630.71,1471.28 2625.03,1476.96 2618.03,1476.96C2611.04,1476.96 2605.36,1471.28 2605.36,1464.28L2605.36,1341.33C2605.36,1266.67 2544.83,1206.14 2470.17,1206.14L808.098,1206.14C740.315,1206.14 685.365,1261.09 685.365,1328.87C685.365,1396.66 740.315,1451.61 808.098,1451.61C809.032,1451.61 809.941,1451.71 810.818,1451.9C811.694,1451.71 812.604,1451.61 813.537,1451.61L869.94,1451.61C894.09,1451.61 913.667,1432.03 913.667,1407.88C913.667,1383.73 894.09,1364.15 869.94,1364.15C831.789,1364.15 800.861,1333.22 800.861,1295.07C800.861,1256.92 831.789,1225.99 869.94,1225.99L1370.02,1225.99C1377.02,1225.99 1382.69,1231.67 1382.69,1238.67C1382.69,1245.66 1377.02,1251.35 1370.02,1251.35L869.94,1251.35C845.79,1251.35 826.212,1270.92 826.212,1295.07C826.212,1319.22 845.79,1338.8 869.94,1338.8C908.091,1338.8 939.019,1369.73 939.019,1407.88C939.019,1446.03 908.091,1476.96 869.94,1476.96L813.537,1476.96C812.604,1476.96 811.694,1476.86 810.818,1476.66ZM1129.3,1407.88C1129.3,1369.73 1160.23,1338.8 1198.38,1338.8C1236.53,1338.8 1267.46,1369.73 1267.46,1407.88L1267.46,1464.28C1267.46,1471.28 1261.78,1476.96 1254.79,1476.96C1247.79,1476.96 1242.11,1471.28 1242.11,1464.28L1242.11,1407.88C1242.11,1383.73 1222.53,1364.15 1198.38,1364.15C1174.23,1364.15 1154.65,1383.73 1154.65,1407.88L1154.65,1464.28C1154.65,1471.28 1148.98,1476.96 1141.98,1476.96C1134.98,1476.96 1129.3,1471.28 1129.3,1464.28L1129.3,1407.88ZM1621.71,1407.88C1621.71,1369.73 1652.63,1338.8 1690.78,1338.8L1729.86,1338.8C1736.85,1338.8 1742.53,1344.48 1742.53,1351.48C1742.53,1358.47 1736.85,1364.15 1729.86,1364.15L1690.78,1364.15C1666.63,1364.15 1647.06,1383.73 1647.06,1407.88L1647.06,1464.28C1647.06,1471.28 1641.38,1476.96 1634.38,1476.96C1627.39,1476.96 1621.71,1471.28 1621.71,1464.28L1621.71,1407.88ZM1405.99,1461.34C1394.08,1471.1 1378.85,1476.96 1362.26,1476.96C1324.13,1476.96 1293.18,1446 1293.18,1407.88C1293.18,1369.75 1324.13,1338.8 1362.26,1338.8C1378.85,1338.8 1394.08,1344.66 1405.99,1354.42L1405.99,1238.67C1405.99,1231.67 1411.67,1225.99 1418.66,1225.99C1425.66,1225.99 1431.34,1231.67 1431.34,1238.67L1431.34,1464.28C1431.34,1471.28 1425.66,1476.96 1418.66,1476.96C1411.67,1476.96 1405.99,1471.28 1405.99,1464.28L1405.99,1461.34ZM1405.99,1407.88C1405.99,1383.74 1386.39,1364.15 1362.26,1364.15C1338.13,1364.15 1318.53,1383.74 1318.53,1407.88C1318.53,1432.01 1338.13,1451.61 1362.26,1451.61C1386.39,1451.61 1405.99,1432.01 1405.99,1407.88ZM1458,1407.88C1458,1369.75 1488.95,1338.8 1527.08,1338.8C1565.23,1338.8 1596.15,1369.73 1596.15,1407.88C1596.15,1414.87 1590.47,1420.55 1583.48,1420.55L1485.21,1420.55C1490.65,1438.52 1507.33,1451.61 1527.08,1451.61L1566.15,1451.61C1573.14,1451.61 1578.82,1457.29 1578.82,1464.28C1578.82,1471.28 1573.14,1476.96 1566.15,1476.96L1527.08,1476.96C1488.92,1476.96 1458,1446.03 1458,1407.88ZM1568.94,1395.2C1563.5,1377.23 1546.82,1364.15 1527.08,1364.15C1507.35,1364.15 1490.65,1377.24 1485.22,1395.2L1568.94,1395.2ZM1033.28,1338.8C1071.4,1338.8 1102.36,1369.75 1102.36,1407.88C1102.36,1446 1071.4,1476.96 1033.28,1476.96C995.153,1476.96 964.2,1446 964.2,1407.88C964.2,1369.75 995.153,1338.8 1033.28,1338.8ZM1033.28,1364.15C1009.14,1364.15 989.551,1383.74 989.551,1407.88C989.551,1432.01 1009.14,1451.61 1033.28,1451.61C1057.41,1451.61 1077.01,1432.01 1077.01,1407.88C1077.01,1383.74 1057.41,1364.15 1033.28,1364.15Z" style="fill:white;"/>
        </g>
        <g transform="matrix(0.722326,0,0,0.722326,195.037,517.19)">
            <path d="M810.175,1473.74C809.506,1473.88 808.811,1473.96 808.098,1473.96C727.968,1473.96 663.01,1409 663.01,1328.87C663.01,1248.74 727.968,1183.78 808.098,1183.78L2077.36,1183.78C2162.08,1183.78 2230.76,1252.46 2230.76,1337.18L2230.76,1464.28C2230.76,1469.62 2226.42,1473.96 2221.08,1473.96C2215.73,1473.96 2211.4,1469.62 2211.4,1464.28L2211.4,1337.18C2211.4,1263.15 2151.39,1203.14 2077.36,1203.14L808.098,1203.14C738.66,1203.14 682.369,1259.43 682.369,1328.87C682.369,1398.31 738.66,1454.6 808.098,1454.6C808.811,1454.6 809.506,1454.68 810.175,1454.83C810.844,1454.68 811.539,1454.6 812.252,1454.6L2051.68,1454.6C2062.81,1454.6 2071.83,1445.58 2071.83,1434.44C2071.83,1423.31 2062.81,1414.28 2051.68,1414.28C2029.85,1414.28 2012.16,1396.59 2012.16,1374.77C2012.16,1352.94 2029.85,1335.25 2051.68,1335.25L2081.51,1335.25C2086.86,1335.25 2091.19,1339.58 2091.19,1344.93C2091.19,1350.27 2086.86,1354.61 2081.51,1354.61L2051.68,1354.61C2040.54,1354.61 2031.52,1363.63 2031.52,1374.77C2031.52,1385.9 2040.54,1394.92 2051.68,1394.92C2073.5,1394.92 2091.19,1412.62 2091.19,1434.44C2091.19,1456.27 2073.5,1473.96 2051.68,1473.96L812.252,1473.96C811.539,1473.96 810.844,1473.88 810.175,1473.74ZM1607.74,1268.46L1311.96,1268.46C1306.61,1268.46 1302.28,1264.12 1302.28,1258.78C1302.28,1253.44 1306.61,1249.1 1311.96,1249.1L1607.74,1249.1C1636.88,1249.1 1660.49,1272.72 1660.49,1301.85C1660.49,1319.64 1651.69,1335.37 1638.2,1344.93C1651.69,1354.48 1660.49,1370.21 1660.49,1388C1660.49,1417.13 1636.88,1440.75 1607.74,1440.75L1564.67,1440.75C1559.32,1440.75 1554.99,1436.41 1554.99,1431.07L1554.99,1301.85C1554.99,1296.51 1559.32,1292.17 1564.67,1292.17C1570.01,1292.17 1574.35,1296.51 1574.35,1301.85L1574.35,1421.39L1607.74,1421.39C1626.18,1421.39 1641.13,1406.44 1641.13,1388C1641.13,1369.56 1626.18,1354.61 1607.74,1354.61C1602.4,1354.61 1598.06,1350.27 1598.06,1344.93C1598.06,1339.58 1602.4,1335.25 1607.74,1335.25C1626.18,1335.25 1641.13,1320.3 1641.13,1301.85C1641.13,1283.41 1626.18,1268.46 1607.74,1268.46ZM1680.93,1388L1680.93,1344.93C1680.93,1339.58 1685.27,1335.25 1690.62,1335.25C1695.96,1335.25 1700.3,1339.58 1700.3,1344.93L1700.3,1388C1700.3,1406.44 1715.25,1421.39 1733.69,1421.39C1752.13,1421.39 1767.08,1406.44 1767.08,1388L1767.08,1344.93C1767.08,1339.58 1771.42,1335.25 1776.76,1335.25C1782.1,1335.25 1786.44,1339.58 1786.44,1344.93L1786.44,1388C1786.44,1417.13 1762.82,1440.75 1733.69,1440.75C1704.55,1440.75 1680.93,1417.13 1680.93,1388ZM1972.44,1428.83C1963.34,1436.28 1951.71,1440.75 1939.05,1440.75C1909.93,1440.75 1886.29,1417.12 1886.29,1388C1886.29,1358.88 1909.93,1335.25 1939.05,1335.25C1951.71,1335.25 1963.34,1339.72 1972.44,1347.17L1972.44,1258.78C1972.44,1253.44 1976.78,1249.1 1982.12,1249.1C1987.46,1249.1 1991.8,1253.44 1991.8,1258.78L1991.8,1431.07C1991.8,1436.41 1987.46,1440.75 1982.12,1440.75C1976.78,1440.75 1972.44,1436.41 1972.44,1431.07L1972.44,1428.83ZM1972.44,1388C1972.44,1369.57 1957.48,1354.61 1939.05,1354.61C1920.62,1354.61 1905.65,1369.57 1905.65,1388C1905.65,1406.43 1920.62,1421.39 1939.05,1421.39C1957.48,1421.39 1972.44,1406.43 1972.44,1388ZM1808.71,1344.93C1808.71,1339.58 1813.05,1335.25 1818.39,1335.25C1823.73,1335.25 1828.07,1339.58 1828.07,1344.93L1828.07,1431.07C1828.07,1436.41 1823.73,1440.75 1818.39,1440.75C1813.05,1440.75 1808.71,1436.41 1808.71,1431.07L1808.71,1344.93ZM1808.71,1258.78C1808.71,1253.44 1813.05,1249.1 1818.39,1249.1C1823.73,1249.1 1828.07,1253.44 1828.07,1258.78L1828.07,1297.4C1828.07,1302.75 1823.73,1307.08 1818.39,1307.08C1813.05,1307.08 1808.71,1302.75 1808.71,1297.4L1808.71,1258.78ZM1847.29,1258.78C1847.29,1253.44 1851.62,1249.1 1856.97,1249.1C1862.31,1249.1 1866.65,1253.44 1866.65,1258.78L1866.65,1431.07C1866.65,1436.41 1862.31,1440.75 1856.97,1440.75C1851.62,1440.75 1847.29,1436.41 1847.29,1431.07L1847.29,1258.78Z" style="fill:rgb(255,0,0);"/>
        </g>
    </g>
</svg>
